<?xml version="1.0" encoding="utf-8"?>
<!-- Generator: Adobe Illustrator 23.0.3, SVG Export Plug-In . SVG Version: 6.00 Build 0)  -->
<svg version="1.1" id="Layer_1" xmlns="http://www.w3.org/2000/svg" xmlns:xlink="http://www.w3.org/1999/xlink" x="0px" y="0px"
	 viewBox="0 0 420 156" style="enable-background:new 0 0 420 156;" xml:space="preserve">
<style type="text/css">
	.st0{display:none;}
	.st1{display:inline;fill:#1A1A1A;}
	.st2{display:inline;fill:#FFFFFF;}
	.st3{display:inline;fill:#EC1C24;}
	.st4{display:inline;fill:#231F20;}
	.st5{fill:none;}
	.st6{font-family:'Avenir-Heavy';}
	.st7{font-size:50px;}
	.st8{letter-spacing:-1;}
	.st9{letter-spacing:-2;}
	.st10{font-family:'Avenir-Black';}
	.st11{font-size:46px;}
	.st12{fill:#EC1C24;}
	.st13{fill:#FFFFFF;}
</style>
<g class="st0">
	<title>Logo</title>
	<desc>Created with Sketch.</desc>
	<g id="Logo">
		<path id="Gentium." class="st1" d="M78.8,37.2c0,22.7-16.8,39.7-39.5,39.7C17.5,76.9,0,60,0,38.1C0,15.9,17.9,0,39.6,0
			c16,0,32.5,10.4,37,26.2H55.4c-3.4-6.1-9.3-9.6-16.3-9.6c-12.1,0-20.2,9.8-20.2,21.5c0,12.1,7.7,22.2,20.3,22.2
			c8.1,0,15.4-3.7,17.7-11.9H34.8V33.3h43.9C78.8,34.6,78.8,35.9,78.8,37.2z M137.7,48.3c0,1.5-0.1,2.9-0.4,4.4H95.7
			c1,6.6,6.5,10.5,13,10.5c4.5,0,7.4-1.8,10.1-5.2h17c-4.8,11.1-14.6,19.2-27.1,19.2c-16.2,0-29.4-13.2-29.4-29.4
			c0-16.1,12.8-29.8,29.1-29.8C125.4,18,137.7,31.6,137.7,48.3z M121.1,41.5c-1.3-6-6.6-9.5-12.6-9.5s-11.3,3.5-12.6,9.5H121.1z
			 M192.8,75.4h-16.6V45.1c0-6.2-1.2-11.5-8.7-11.5c-7.7,0-9.5,5-9.5,11.6v30.2h-16.6V19.9h15.5v5.9h0.2c3.5-5.7,8.4-7.8,15.1-7.8
			c4.7,0,10.6,1.8,14.2,4.8c5.3,4.4,6.4,11.4,6.4,17.9L192.8,75.4L192.8,75.4z M226.9,32.5h-8v42.9h-16.6V32.5h-8.2V19.9h8.2V1.4
			h16.6v18.5h8V32.5z M245.2,14h-16.6V1.4h16.6V14z M245.2,75.4h-16.6V19.9h16.6V75.4z M303,75.4h-15.7v-5.9h-0.2
			c-2.9,6-8.2,7.7-14.4,7.7c-6.1,0-12.3-2.1-16.3-7c-4.5-5.6-5-10.2-5-17.1V19.9H268v30.7c0,6.3,1.4,11.1,8.9,11.1
			c6.9,0,9.5-4.9,9.5-11.3V19.9H303V75.4z M394.7,75.4h-16.6V45.9c0-6.1-0.8-12.3-8.5-12.3c-7.4,0-9.2,5.2-9.2,11.5v30.3h-16.6V45.2
			c0-5.7-1.3-11.6-8.3-11.6c-7.7,0-9.4,5.8-9.4,12.3v29.5h-16.6V19.9H325v5.9h0.2c3.2-5.7,9-7.8,15.3-7.8c7.2,0,12.6,3.6,16,9.9
			c4-6.3,10.1-9.9,17.6-9.9c5.5,0,10.7,1.6,14.6,5.6c6.3,6.4,6,13,6,21.5V75.4z M419.2,75.4h-17.3v-17h17.3V75.4z"/>
		<path id="Gentium.-Copy" class="st2" d="M78.8,116.2c0,22.7-16.8,39.7-39.5,39.7C17.5,155.9,0,139,0,117.1C0,94.9,17.9,79,39.6,79
			c16,0,32.5,10.4,37,26.2H55.4c-3.4-6.1-9.3-9.6-16.3-9.6c-12.1,0-20.2,9.8-20.2,21.5c0,12.1,7.7,22.2,20.3,22.2
			c8.1,0,15.4-3.7,17.7-11.9H34.8v-15.1h43.9C78.8,113.6,78.8,114.9,78.8,116.2z M137.7,127.3c0,1.5-0.1,2.9-0.4,4.4H95.7
			c1,6.6,6.5,10.5,13,10.5c4.5,0,7.4-1.8,10.1-5.2h17c-4.8,11.1-14.6,19.2-27.1,19.2c-16.2,0-29.4-13.2-29.4-29.4
			c0-16.1,12.8-29.8,29.1-29.8C125.4,97,137.7,110.6,137.7,127.3z M121.1,120.5c-1.3-6-6.6-9.5-12.6-9.5s-11.3,3.5-12.6,9.5H121.1z
			 M192.8,154.4h-16.6v-30.3c0-6.2-1.2-11.5-8.7-11.5c-7.7,0-9.5,5-9.5,11.6v30.2h-16.6V98.9h15.5v5.9h0.2c3.5-5.7,8.4-7.8,15.1-7.8
			c4.7,0,10.6,1.8,14.2,4.8c5.3,4.4,6.4,11.4,6.4,17.9L192.8,154.4L192.8,154.4z M226.9,111.5h-8v42.9h-16.6v-42.9h-8.2V98.9h8.2
			V80.4h16.6v18.5h8V111.5z M245.2,93h-16.6V80.4h16.6V93z M245.2,154.4h-16.6V98.9h16.6V154.4z M303,154.4h-15.7v-5.9h-0.2
			c-2.9,6-8.2,7.7-14.4,7.7c-6.1,0-12.3-2.1-16.3-7c-4.5-5.6-5-10.2-5-17.1V98.9H268v30.7c0,6.3,1.4,11.1,8.9,11.1
			c6.9,0,9.5-4.9,9.5-11.3V98.9H303V154.4z M394.7,154.4h-16.6v-29.5c0-6.1-0.8-12.3-8.5-12.3c-7.4,0-9.2,5.2-9.2,11.5v30.3h-16.6
			v-30.2c0-5.7-1.3-11.6-8.3-11.6c-7.7,0-9.4,5.8-9.4,12.3v29.5h-16.6V98.9H325v5.9h0.2c3.2-5.7,9-7.8,15.3-7.8
			c7.2,0,12.6,3.6,16,9.9c4-6.3,10.1-9.9,17.6-9.9c5.5,0,10.7,1.6,14.6,5.6c6.3,6.4,6,13,6,21.5V154.4z M419.2,154.4h-17.3v-17h17.3
			V154.4z"/>
	</g>
	<g>
		<path class="st3" d="M98.2,23.7h13.9c2.3,0,4.6,0.4,6.8,1.1c2.2,0.7,4.1,1.8,5.8,3.3c1.7,1.5,3,3.3,4,5.5c1,2.2,1.5,4.8,1.5,7.8
			s-0.6,5.7-1.7,7.9c-1.1,2.2-2.6,4.1-4.4,5.5c-1.8,1.5-3.8,2.5-6.1,3.2c-2.2,0.7-4.4,1.1-6.5,1.1H98.2V23.7z M109.2,53.4
			c2,0,3.8-0.2,5.6-0.7s3.3-1.1,4.6-2.1c1.3-0.9,2.3-2.2,3.1-3.7c0.8-1.5,1.1-3.4,1.1-5.5s-0.3-4-1-5.5s-1.6-2.8-2.8-3.7
			c-1.2-1-2.6-1.7-4.2-2.1c-1.6-0.5-3.4-0.7-5.3-0.7h-5.8v24H109.2z"/>
		<path class="st3" d="M133.6,26.9c0-1,0.4-1.8,1.1-2.5c0.7-0.7,1.6-1.1,2.7-1.1c1.1,0,2,0.3,2.8,1s1.1,1.5,1.1,2.6
			c0,1-0.4,1.9-1.1,2.6c-0.8,0.7-1.7,1-2.8,1s-2-0.4-2.7-1.1C134,28.7,133.6,27.9,133.6,26.9z M134.5,35.1h6v24h-6V35.1z"/>
		<path class="st3" d="M170.8,35.1V57c0,2.2-0.3,4.1-0.8,5.9s-1.4,3.2-2.5,4.4c-1.1,1.2-2.5,2.2-4.2,2.8c-1.7,0.7-3.7,1-6.1,1
			c-2.2,0-4.3-0.3-6.3-0.9s-3.9-1.6-5.6-3.1l3.6-4.9c1.2,1.1,2.5,2,3.8,2.6s2.8,0.9,4.5,0.9c1.4,0,2.6-0.2,3.6-0.6s1.8-1,2.4-1.6
			c0.6-0.7,1-1.5,1.2-2.5s0.4-2.1,0.4-3.3v-1.8h-0.1c-0.9,1.2-2,2-3.5,2.6c-1.4,0.6-2.9,0.9-4.4,0.9c-1.8,0-3.4-0.3-4.9-1
			s-2.7-1.5-3.8-2.6s-1.9-2.4-2.4-3.9c-0.6-1.5-0.8-3.1-0.8-4.8c0-1.8,0.3-3.4,0.8-5c0.5-1.5,1.3-2.9,2.4-4c1-1.1,2.3-2,3.7-2.7
			c1.4-0.6,3.1-1,5-1c1.7,0,3.3,0.3,4.8,1s2.6,1.7,3.5,3.2h0.1V35L170.8,35.1L170.8,35.1z M158,39.9c-1.1,0-2,0.2-2.9,0.5
			s-1.6,0.8-2.2,1.4c-0.6,0.6-1.1,1.4-1.4,2.2c-0.4,0.9-0.5,1.9-0.5,2.9s0.2,1.9,0.5,2.7c0.4,0.8,0.8,1.6,1.5,2.2
			c0.6,0.6,1.4,1.1,2.2,1.5C156,53.8,157,54,158,54c1.1,0,2.1-0.2,3-0.5c0.9-0.4,1.6-0.9,2.2-1.5c0.6-0.6,1.1-1.4,1.4-2.2
			c0.3-0.9,0.5-1.8,0.5-2.8c0-2.1-0.6-3.8-1.9-5.1C161.9,40.5,160.2,39.9,158,39.9z"/>
		<path class="st3" d="M175.6,26.9c0-1,0.4-1.8,1.1-2.5c0.7-0.7,1.6-1.1,2.7-1.1c1.1,0,2,0.3,2.8,1s1.1,1.5,1.1,2.6
			c0,1-0.4,1.9-1.1,2.6c-0.8,0.7-1.7,1-2.8,1s-2-0.4-2.7-1.1C176,28.7,175.6,27.9,175.6,26.9z M176.5,35.1h6v24h-6V35.1z"/>
		<path class="st3" d="M188.7,23.7h23.4v5.7H195v8.7h16.2v5.7H195v9.6h18v5.7h-24.4L188.7,23.7L188.7,23.7z"/>
		<path class="st3" d="M217.5,21.3h6v37.8h-6V21.3z"/>
		<path class="st3" d="M233,49.2c0.2,1.8,0.9,3.2,2.1,4.2s2.7,1.5,4.4,1.5c1.5,0,2.8-0.3,3.8-0.9c1-0.6,1.9-1.4,2.7-2.3l4.3,3.2
			c-1.4,1.7-3,3-4.7,3.7s-3.5,1.1-5.5,1.1c-1.8,0-3.5-0.3-5.1-0.9c-1.6-0.6-3-1.5-4.2-2.6s-2.1-2.4-2.8-4c-0.7-1.5-1-3.3-1-5.2
			s0.3-3.6,1-5.2c0.7-1.6,1.6-2.9,2.8-4s2.5-2,4.2-2.6c1.6-0.6,3.3-0.9,5.1-0.9c1.7,0,3.2,0.3,4.6,0.9c1.4,0.6,2.6,1.4,3.5,2.5
			c1,1.1,1.8,2.5,2.3,4.1s0.8,3.5,0.8,5.6V49H233V49.2z M245.3,44.7c0-1.8-0.6-3.2-1.7-4.2c-1.1-1-2.5-1.5-4.4-1.5
			c-1.8,0-3.2,0.5-4.3,1.6s-1.7,2.4-1.9,4.1C233,44.7,245.3,44.7,245.3,44.7z"/>
		<path class="st3" d="M252.4,35.1h6.5l6.4,16.8h0.1l6.5-16.8h6.1l-9.5,24h-6.4L252.4,35.1z"/>
		<path class="st3" d="M295.3,55.8h-0.2c-0.9,1.4-2,2.4-3.3,3s-2.8,0.9-4.4,0.9c-1.1,0-2.2-0.1-3.2-0.5c-1-0.3-2-0.8-2.8-1.4
			c-0.8-0.6-1.5-1.3-2-2.2s-0.8-1.9-0.8-3.1c0-1.3,0.2-2.4,0.7-3.3c0.5-0.9,1.1-1.7,1.9-2.3s1.7-1.1,2.7-1.5s2.1-0.6,3.2-0.8
			s2.2-0.3,3.4-0.4c1.1,0,2.2-0.1,3.2-0.1h1.5v-0.6c0-1.5-0.5-2.6-1.6-3.4s-2.3-1.1-3.9-1.1c-1.3,0-2.5,0.2-3.6,0.7
			c-1.1,0.4-2,1.1-2.8,1.8l-3.2-3.1c1.3-1.4,2.9-2.4,4.7-3c1.8-0.6,3.6-0.9,5.5-0.9c1.7,0,3.1,0.2,4.3,0.6c1.2,0.4,2.1,0.9,2.9,1.5
			s1.4,1.3,1.8,2.1s0.7,1.6,0.9,2.4c0.2,0.8,0.3,1.6,0.3,2.3s0,1.4,0,2v13.8h-5.4v-3.4H295.3z M295,48.3h-1.2c-0.8,0-1.8,0-2.8,0.1
			s-2,0.2-2.9,0.5c-0.9,0.2-1.7,0.6-2.3,1.1c-0.6,0.5-1,1.2-1,2c0,0.6,0.1,1,0.4,1.4c0.2,0.4,0.6,0.7,1,1s0.8,0.5,1.3,0.6
			s1,0.2,1.5,0.2c2.1,0,3.6-0.5,4.6-1.5s1.5-2.3,1.5-4v-1.4H295z"/>
		<path class="st3" d="M303.1,40.2v-5.1h5v-7h6v7h6.6v5.1h-6.6v10.5c0,1.2,0.2,2.1,0.7,2.9c0.5,0.7,1.3,1,2.7,1
			c0.5,0,1.1-0.1,1.8-0.2c0.6-0.1,1.1-0.3,1.5-0.6v5c-0.6,0.3-1.4,0.5-2.3,0.6s-1.7,0.2-2.4,0.2c-1.6,0-2.9-0.2-3.9-0.5
			c-1-0.4-1.8-0.9-2.4-1.6c-0.6-0.7-1-1.6-1.2-2.7c-0.2-1.1-0.3-2.3-0.3-3.7v-11L303.1,40.2L303.1,40.2z"/>
		<path class="st3" d="M325.4,26.9c0-1,0.4-1.8,1.1-2.5s1.6-1.1,2.7-1.1s2,0.3,2.8,1s1.1,1.5,1.1,2.6c0,1-0.4,1.9-1.1,2.6
			c-0.8,0.7-1.7,1-2.8,1c-1.1,0-2-0.4-2.7-1.1C325.7,28.7,325.4,27.9,325.4,26.9z M326.2,35.1h6v24h-6V35.1z"/>
		<path class="st3" d="M336.7,47.1c0-1.9,0.3-3.6,1-5.2c0.7-1.6,1.6-2.9,2.8-4c1.2-1.1,2.5-2,4.2-2.6c1.6-0.6,3.3-0.9,5.1-0.9
			s3.5,0.3,5.1,0.9c1.6,0.6,3,1.5,4.2,2.6s2.1,2.4,2.8,4c0.7,1.5,1,3.3,1,5.2s-0.3,3.6-1,5.2c-0.7,1.6-1.6,2.9-2.8,4
			c-1.2,1.1-2.5,2-4.2,2.6c-1.6,0.6-3.3,0.9-5.1,0.9s-3.5-0.3-5.1-0.9c-1.6-0.6-3-1.5-4.2-2.6s-2.1-2.4-2.8-4
			C337,50.7,336.7,49,336.7,47.1z M342.7,47.1c0,0.9,0.2,1.8,0.5,2.7s0.8,1.6,1.4,2.3s1.4,1.2,2.2,1.6c0.9,0.4,1.9,0.6,3,0.6
			s2.1-0.2,3-0.6c0.9-0.4,1.6-0.9,2.2-1.6c0.6-0.7,1.1-1.4,1.4-2.3c0.3-0.9,0.5-1.8,0.5-2.7s-0.2-1.8-0.5-2.7s-0.8-1.6-1.4-2.3
			s-1.4-1.2-2.2-1.6c-0.9-0.4-1.9-0.6-3-0.6s-2.1,0.2-3,0.6c-0.9,0.4-1.6,0.9-2.2,1.6c-0.6,0.7-1.1,1.4-1.4,2.3
			C342.8,45.3,342.7,46.2,342.7,47.1z"/>
		<path class="st3" d="M366.1,35.1h5.7V39h0.1c0.6-1.2,1.4-2.2,2.6-3.1c1.2-0.9,2.8-1.3,4.8-1.3c1.6,0,3,0.3,4.1,0.8s2,1.2,2.7,2.1
			c0.7,0.9,1.2,1.9,1.5,3s0.5,2.3,0.5,3.6v15.1h-6V46.9c0-0.7,0-1.4-0.1-2.2s-0.2-1.6-0.5-2.3s-0.7-1.3-1.3-1.8
			c-0.6-0.5-1.4-0.7-2.4-0.7s-1.8,0.2-2.5,0.5s-1.2,0.8-1.7,1.4c-0.5,0.6-0.8,1.2-1,2c-0.2,0.7-0.3,1.5-0.3,2.3v13.1h-6V35.1H366.1z
			"/>
	</g>
	<g>
		<path class="st4" d="M98.2,23.7h13.9c2.3,0,4.6,0.4,6.8,1.1c2.2,0.7,4.1,1.8,5.8,3.3c1.7,1.5,3,3.3,4,5.5c1,2.2,1.5,4.8,1.5,7.8
			s-0.6,5.7-1.7,7.9c-1.1,2.2-2.6,4.1-4.4,5.5c-1.8,1.5-3.8,2.5-6.1,3.2c-2.2,0.7-4.4,1.1-6.5,1.1H98.2V23.7z M109.2,53.4
			c2,0,3.8-0.2,5.6-0.7s3.3-1.1,4.6-2.1c1.3-0.9,2.3-2.2,3.1-3.7c0.8-1.5,1.1-3.4,1.1-5.5s-0.3-4-1-5.5s-1.6-2.8-2.8-3.7
			c-1.2-1-2.6-1.7-4.2-2.1c-1.6-0.5-3.4-0.7-5.3-0.7h-5.8v24H109.2z"/>
		<path class="st4" d="M133.6,26.9c0-1,0.4-1.8,1.1-2.5c0.7-0.7,1.6-1.1,2.7-1.1c1.1,0,2,0.3,2.8,1s1.1,1.5,1.1,2.6
			c0,1-0.4,1.9-1.1,2.6c-0.8,0.7-1.7,1-2.8,1s-2-0.4-2.7-1.1C134,28.7,133.6,27.9,133.6,26.9z M134.5,35.1h6v24h-6V35.1z"/>
		<path class="st4" d="M170.8,35.1V57c0,2.2-0.3,4.1-0.8,5.9s-1.4,3.2-2.5,4.4c-1.1,1.2-2.5,2.2-4.2,2.8c-1.7,0.7-3.7,1-6.1,1
			c-2.2,0-4.3-0.3-6.3-0.9s-3.9-1.6-5.6-3.1l3.6-4.9c1.2,1.1,2.5,2,3.8,2.6s2.8,0.9,4.5,0.9c1.4,0,2.6-0.2,3.6-0.6s1.8-1,2.4-1.6
			c0.6-0.7,1-1.5,1.2-2.5s0.4-2.1,0.4-3.3v-1.8h-0.1c-0.9,1.2-2,2-3.5,2.6c-1.4,0.6-2.9,0.9-4.4,0.9c-1.8,0-3.4-0.3-4.9-1
			s-2.7-1.5-3.8-2.6s-1.9-2.4-2.4-3.9c-0.6-1.5-0.8-3.1-0.8-4.8c0-1.8,0.3-3.4,0.8-5c0.5-1.5,1.3-2.9,2.4-4c1-1.1,2.3-2,3.7-2.7
			c1.4-0.6,3.1-1,5-1c1.7,0,3.3,0.3,4.8,1s2.6,1.7,3.5,3.2h0.1V35L170.8,35.1L170.8,35.1z M158,39.9c-1.1,0-2,0.2-2.9,0.5
			s-1.6,0.8-2.2,1.4c-0.6,0.6-1.1,1.4-1.4,2.2c-0.4,0.9-0.5,1.9-0.5,2.9s0.2,1.9,0.5,2.7c0.4,0.8,0.8,1.6,1.5,2.2
			c0.6,0.6,1.4,1.1,2.2,1.5C156,53.8,157,54,158,54c1.1,0,2.1-0.2,3-0.5c0.9-0.4,1.6-0.9,2.2-1.5c0.6-0.6,1.1-1.4,1.4-2.2
			c0.3-0.9,0.5-1.8,0.5-2.8c0-2.1-0.6-3.8-1.9-5.1C161.9,40.5,160.2,39.9,158,39.9z"/>
		<path class="st4" d="M175.6,26.9c0-1,0.4-1.8,1.1-2.5c0.7-0.7,1.6-1.1,2.7-1.1c1.1,0,2,0.3,2.8,1s1.1,1.5,1.1,2.6
			c0,1-0.4,1.9-1.1,2.6c-0.8,0.7-1.7,1-2.8,1s-2-0.4-2.7-1.1C176,28.7,175.6,27.9,175.6,26.9z M176.5,35.1h6v24h-6V35.1z"/>
		<path class="st4" d="M188.7,23.7h23.4v5.7H195v8.7h16.2v5.7H195v9.6h18v5.7h-24.4L188.7,23.7L188.7,23.7z"/>
		<path class="st4" d="M217.5,21.3h6v37.8h-6V21.3z"/>
		<path class="st4" d="M233,49.2c0.2,1.8,0.9,3.2,2.1,4.2s2.7,1.5,4.4,1.5c1.5,0,2.8-0.3,3.8-0.9c1-0.6,1.9-1.4,2.7-2.3l4.3,3.2
			c-1.4,1.7-3,3-4.7,3.7s-3.5,1.1-5.5,1.1c-1.8,0-3.5-0.3-5.1-0.9c-1.6-0.6-3-1.5-4.2-2.6s-2.1-2.4-2.8-4c-0.7-1.5-1-3.3-1-5.2
			s0.3-3.6,1-5.2c0.7-1.6,1.6-2.9,2.8-4s2.5-2,4.2-2.6c1.6-0.6,3.3-0.9,5.1-0.9c1.7,0,3.2,0.3,4.6,0.9c1.4,0.6,2.6,1.4,3.5,2.5
			c1,1.1,1.8,2.5,2.3,4.1s0.8,3.5,0.8,5.6V49H233V49.2z M245.3,44.7c0-1.8-0.6-3.2-1.7-4.2c-1.1-1-2.5-1.5-4.4-1.5
			c-1.8,0-3.2,0.5-4.3,1.6s-1.7,2.4-1.9,4.1C233,44.7,245.3,44.7,245.3,44.7z"/>
		<path class="st4" d="M252.4,35.1h6.5l6.4,16.8h0.1l6.5-16.8h6.1l-9.5,24h-6.4L252.4,35.1z"/>
		<path class="st4" d="M295.3,55.8h-0.2c-0.9,1.4-2,2.4-3.3,3s-2.8,0.9-4.4,0.9c-1.1,0-2.2-0.1-3.2-0.5c-1-0.3-2-0.8-2.8-1.4
			c-0.8-0.6-1.5-1.3-2-2.2s-0.8-1.9-0.8-3.1c0-1.3,0.2-2.4,0.7-3.3c0.5-0.9,1.1-1.7,1.9-2.3s1.7-1.1,2.7-1.5s2.1-0.6,3.2-0.8
			s2.2-0.3,3.4-0.4c1.1,0,2.2-0.1,3.2-0.1h1.5v-0.6c0-1.5-0.5-2.6-1.6-3.4s-2.3-1.1-3.9-1.1c-1.3,0-2.5,0.2-3.6,0.7
			c-1.1,0.4-2,1.1-2.8,1.8l-3.2-3.1c1.3-1.4,2.9-2.4,4.7-3c1.8-0.6,3.6-0.9,5.5-0.9c1.7,0,3.1,0.2,4.3,0.6c1.2,0.4,2.1,0.9,2.9,1.5
			s1.4,1.3,1.8,2.1s0.7,1.6,0.9,2.4c0.2,0.8,0.3,1.6,0.3,2.3s0,1.4,0,2v13.8h-5.4v-3.4H295.3z M295,48.3h-1.2c-0.8,0-1.8,0-2.8,0.1
			s-2,0.2-2.9,0.5c-0.9,0.2-1.7,0.6-2.3,1.1c-0.6,0.5-1,1.2-1,2c0,0.6,0.1,1,0.4,1.4c0.2,0.4,0.6,0.7,1,1s0.8,0.5,1.3,0.6
			s1,0.2,1.5,0.2c2.1,0,3.6-0.5,4.6-1.5s1.5-2.3,1.5-4v-1.4H295z"/>
		<path class="st4" d="M303.1,40.2v-5.1h5v-7h6v7h6.6v5.1h-6.6v10.5c0,1.2,0.2,2.1,0.7,2.9c0.5,0.7,1.3,1,2.7,1
			c0.5,0,1.1-0.1,1.8-0.2c0.6-0.1,1.1-0.3,1.5-0.6v5c-0.6,0.3-1.4,0.5-2.3,0.6s-1.7,0.2-2.4,0.2c-1.6,0-2.9-0.2-3.9-0.5
			c-1-0.4-1.8-0.9-2.4-1.6c-0.6-0.7-1-1.6-1.2-2.7c-0.2-1.1-0.3-2.3-0.3-3.7v-11L303.1,40.2L303.1,40.2z"/>
		<path class="st4" d="M325.4,26.9c0-1,0.4-1.8,1.1-2.5s1.6-1.1,2.7-1.1s2,0.3,2.8,1s1.1,1.5,1.1,2.6c0,1-0.4,1.9-1.1,2.6
			c-0.8,0.7-1.7,1-2.8,1c-1.1,0-2-0.4-2.7-1.1C325.7,28.7,325.4,27.9,325.4,26.9z M326.2,35.1h6v24h-6V35.1z"/>
		<path class="st4" d="M336.7,47.1c0-1.9,0.3-3.6,1-5.2c0.7-1.6,1.6-2.9,2.8-4c1.2-1.1,2.5-2,4.2-2.6c1.6-0.6,3.3-0.9,5.1-0.9
			s3.5,0.3,5.1,0.9c1.6,0.6,3,1.5,4.2,2.6s2.1,2.4,2.8,4c0.7,1.5,1,3.3,1,5.2s-0.3,3.6-1,5.2c-0.7,1.6-1.6,2.9-2.8,4
			c-1.2,1.1-2.5,2-4.2,2.6c-1.6,0.6-3.3,0.9-5.1,0.9s-3.5-0.3-5.1-0.9c-1.6-0.6-3-1.5-4.2-2.6s-2.1-2.4-2.8-4
			C337,50.7,336.7,49,336.7,47.1z M342.7,47.1c0,0.9,0.2,1.8,0.5,2.7s0.8,1.6,1.4,2.3s1.4,1.2,2.2,1.6c0.9,0.4,1.9,0.6,3,0.6
			s2.1-0.2,3-0.6c0.9-0.4,1.6-0.9,2.2-1.6c0.6-0.7,1.1-1.4,1.4-2.3c0.3-0.9,0.5-1.8,0.5-2.7s-0.2-1.8-0.5-2.7s-0.8-1.6-1.4-2.3
			s-1.4-1.2-2.2-1.6c-0.9-0.4-1.9-0.6-3-0.6s-2.1,0.2-3,0.6c-0.9,0.4-1.6,0.9-2.2,1.6c-0.6,0.7-1.1,1.4-1.4,2.3
			C342.8,45.3,342.7,46.2,342.7,47.1z"/>
		<path class="st4" d="M366.1,35.1h5.7V39h0.1c0.6-1.2,1.4-2.2,2.6-3.1c1.2-0.9,2.8-1.3,4.8-1.3c1.6,0,3,0.3,4.1,0.8s2,1.2,2.7,2.1
			c0.7,0.9,1.2,1.9,1.5,3s0.5,2.3,0.5,3.6v15.1h-6V46.9c0-0.7,0-1.4-0.1-2.2s-0.2-1.6-0.5-2.3s-0.7-1.3-1.3-1.8
			c-0.6-0.5-1.4-0.7-2.4-0.7s-1.8,0.2-2.5,0.5s-1.2,0.8-1.7,1.4c-0.5,0.6-0.8,1.2-1,2c-0.2,0.7-0.3,1.5-0.3,2.3v13.1h-6V35.1H366.1z
			"/>
	</g>
	<rect x="94.3" y="21.3" class="st5" width="375.8" height="53.3"/>
	<text transform="matrix(1 0 0 1 94.2676 59.0835)" class="st4 st6 st7 st8">DigiE</text>
	<text transform="matrix(1 0 0 1 213.9676 59.0835)" class="st4 st6 st7 st9">l</text>
	<text transform="matrix(1 0 0 1 224.7676 59.0835)" class="st4 st6 st7 st8">eva</text>
	<text transform="matrix(1 0 0 1 302.4676 59.0835)" class="st4 st6 st7">t</text>
	<text transform="matrix(1 0 0 1 322.6676 59.0835)" class="st4 st6 st7 st8">i</text>
	<text transform="matrix(1 0 0 1 334.4676 59.0835)" class="st4 st6 st7 st9">o</text>
	<text transform="matrix(1 0 0 1 362.6676 59.0835)" class="st4 st6 st7 st8">n</text>
</g>
<rect x="110.8" y="24.2" class="st5" width="270.7" height="74.9"/>
<text transform="matrix(1 0 0 1 110.8198 59.0192)" class="st10 st11 st8">DigiElevation</text>
<g>
	<rect y="-6" class="st12" width="86.2" height="90.2"/>
	<path class="st13" d="M34.9,54.3L34.9,54.3c-0.9,1.4-2.2,2.7-3.8,3.7c-1.7,1-3.7,1.5-6,1.5c-1.7,0-3.5-0.3-5-1
		c-1.5-0.7-2.9-1.6-4-2.8c-1.2-1.2-2.1-2.5-2.7-4.2c-0.7-1.6-0.9-3.3-0.9-5.3c0-2,0.3-3.7,0.9-5.3c0.7-1.6,1.5-3,2.7-4.2
		c1.2-1.2,2.5-2.1,4.2-2.8c1.6-0.7,3.5-1,5.4-1c1.8,0,3.5,0.3,5.1,1.2c1.5,0.8,2.9,1.8,4,3.2h0.1V18h4.3v40.7H35v-4.4H34.9z
		 M34.9,46.2c0-1.4-0.2-2.5-0.6-3.7c-0.5-1.2-1-2.1-1.8-3c-0.8-0.8-1.7-1.5-2.9-2c-1.2-0.5-2.3-0.7-3.7-0.7c-1.4,0-2.7,0.2-3.7,0.7
		c-1.2,0.5-2.1,1.2-2.9,2c-0.8,0.8-1.4,1.8-1.8,3s-0.6,2.3-0.6,3.7s0.2,2.5,0.6,3.7c0.5,1.2,1,2.1,1.8,3c0.8,0.8,1.7,1.5,2.9,2
		c1.2,0.5,2.3,0.7,3.7,0.7c1.4,0,2.7-0.2,3.7-0.7c1.2-0.5,2.1-1.2,2.9-2c0.8-0.8,1.4-1.8,1.8-3C34.7,48.8,34.9,47.5,34.9,46.2"/>
	<path class="st13" d="M72.6,31.5v0.9c0,0.3,0,0.7-0.1,1H49.9c0,1.4,0.3,2.7,0.8,3.8c0.5,1.2,1.2,2.2,2.1,3.1c0.9,0.9,2,1.6,3.1,2.1
		c1.2,0.6,2.5,0.8,3.9,0.8c2.1,0,3.8-0.5,5.3-1.4c1.5-0.9,2.7-2.1,3.3-3.2l3,2.3c-1.6,2.1-3.5,3.6-5.4,4.4c-2,0.9-4,1.4-6.3,1.4
		c-2,0-3.9-0.3-5.6-1c-1.7-0.7-3.2-1.7-4.5-3c-1.3-1.3-2.2-2.8-2.9-4.5s-1-3.7-1-5.6c0-2.1,0.3-3.9,1-5.6c0.7-1.7,1.6-3.2,2.9-4.5
		c1.3-1.3,2.7-2.3,4.4-3c1.6-0.7,3.5-1,5.4-1c2.1,0,4,0.3,5.6,1c1.6,0.7,3,1.7,4,2.9c1,1.3,2,2.7,2.4,4.3
		C72.3,27.9,72.6,29.6,72.6,31.5 M68.6,30.2c-0.1-2.5-0.9-4.7-2.4-6.3c-1.5-1.7-3.7-2.5-6.6-2.5c-1.3,0-2.5,0.2-3.7,0.7
		c-1.2,0.5-2.1,1.2-3,2c-0.8,0.8-1.5,1.7-2.1,2.9c-0.5,1-0.8,2.2-0.9,3.3H68.6z"/>
	<path class="st13" d="M63.6,55c0,2.4-2,4.4-4.4,4.4c-2.4,0-4.4-2-4.4-4.4s2-4.4,4.4-4.4C61.7,50.6,63.6,52.6,63.6,55"/>
</g>
</svg>
