<?xml version="1.0" encoding="utf-8"?>
<!-- Generator: Adobe Illustrator 23.0.3, SVG Export Plug-In . SVG Version: 6.00 Build 0)  -->
<svg version="1.1" id="Layer_1" xmlns="http://www.w3.org/2000/svg" xmlns:xlink="http://www.w3.org/1999/xlink" x="0px" y="0px"
	 viewBox="0 0 260 260" style="enable-background:new 0 0 260 260;" xml:space="preserve">
<style type="text/css">
	.st0{fill:#FFFFFF;}
</style>
<g>
	<rect x="0" width="261.1" height="261"/>
	<g>
		<path class="st0" d="M105.8,182.5h-0.3c-2.4,4.3-6.2,8-11.3,11c-5.2,3-11.2,4.5-18,4.5c-5.3,0-10.3-1-15-3
			c-4.7-2-8.7-4.8-12.1-8.4c-3.4-3.6-6.1-7.8-8.1-12.7c-2-4.9-2.9-10.2-2.9-16c0-5.8,1-11.1,2.9-16c2-4.9,4.7-9.1,8.2-12.7
			c3.5-3.6,7.7-6.4,12.6-8.4c4.9-2,10.4-3,16.4-3c5.5,0,10.6,1.1,15.2,3.4c4.6,2.3,8.7,5.5,12.1,9.6h0.3V72.7h12.7V196h-12.7V182.5z
			 M105.8,157.9c0-4-0.6-7.7-1.9-11.2c-1.3-3.4-3.1-6.4-5.5-9c-2.4-2.6-5.2-4.6-8.6-6c-3.3-1.5-7-2.2-11.2-2.2
			c-4.1,0-7.9,0.7-11.2,2.2c-3.3,1.5-6.2,3.5-8.6,6c-2.4,2.6-4.2,5.5-5.5,9c-1.3,3.4-1.9,7.1-1.9,11.2c0,4,0.6,7.7,1.9,11.2
			c1.2,3.4,3.1,6.4,5.5,9c2.4,2.6,5.2,4.6,8.6,6c3.3,1.5,7,2.2,11.2,2.2c4.1,0,7.9-0.7,11.2-2.2c3.3-1.5,6.2-3.5,8.6-6
			c2.4-2.6,4.2-5.5,5.5-9C105.2,165.6,105.8,161.9,105.8,157.9z"/>
	</g>
	<g>
		<path class="st0" d="M219.7,113.5c0,0.8,0,1.7,0,2.6c0,0.9-0.1,1.9-0.2,3h-68.2c0.1,4.1,0.9,8,2.5,11.6c1.5,3.6,3.6,6.8,6.3,9.5
			c2.7,2.7,5.9,4.8,9.5,6.4c3.6,1.6,7.6,2.4,11.8,2.4c6.2,0,11.6-1.4,16.1-4.3c4.5-2.9,7.9-6.2,10.3-9.9l9,7
			c-4.9,6.2-10.3,10.7-16.3,13.4c-5.9,2.7-12.3,4-19.1,4c-6.1,0-11.8-1.1-17-3.3c-5.2-2.2-9.7-5.2-13.5-9.1
			c-3.8-3.9-6.7-8.4-8.9-13.7c-2.2-5.3-3.3-11-3.3-17.2c0-6.2,1.1-12,3.2-17.2c2.1-5.3,5-9.8,8.8-13.7c3.7-3.9,8.1-6.9,13.2-9.1
			c5-2.2,10.5-3.3,16.4-3.3c6.4,0,12.1,1.1,17.1,3.3c4.9,2.2,9,5.1,12.3,8.8c3.3,3.7,5.8,8,7.5,12.9
			C218.8,102.6,219.7,107.9,219.7,113.5z M207.5,109.7c-0.4-7.7-2.8-14.2-7.5-19.3c-4.6-5.1-11.2-7.6-19.8-7.6
			c-4,0-7.7,0.7-11.1,2.2c-3.4,1.5-6.4,3.5-9,6c-2.6,2.5-4.6,5.4-6.2,8.6c-1.5,3.2-2.4,6.6-2.6,10.1H207.5z"/>
	</g>
	<circle class="st0" cx="179.5" cy="184.6" r="13.2"/>
</g>
</svg>
